<svg width="10" height="10" viewBox="0 0 10 10" fill="none" xmlns="http://www.w3.org/2000/svg">
    <path d="M9.0625 10H0.9375C0.42038 10 0 9.57916 0 9.0625V0.9375C0 0.420837 0.42038 0 0.9375 0H9.0625C9.57962 0 10 0.420837 10 0.9375V9.0625C10 9.57916 9.57962 10 9.0625 10ZM0.9375 0.625C0.764999 0.625 0.625 0.765381 0.625 0.9375V9.0625C0.625 9.23462 0.764999 9.375 0.9375 9.375H9.0625C9.235 9.375 9.375 9.23462 9.375 9.0625V0.9375C9.375 0.765381 9.235 0.625 9.0625 0.625H0.9375Z" fill="black"/>
    <path d="M9.6875 5.3125H0.3125C0.139999 5.3125 0 5.1725 0 5C0 4.8275 0.139999 4.6875 0.3125 4.6875H9.6875C9.86 4.6875 10 4.8275 10 5C10 5.1725 9.86 5.3125 9.6875 5.3125Z" fill="black"/>
    <path d="M5 10C4.8275 10 4.6875 9.86 4.6875 9.6875V0.3125C4.6875 0.139999 4.8275 0 5 0C5.1725 0 5.3125 0.139999 5.3125 0.3125V9.6875C5.3125 9.86 5.1725 10 5 10Z" fill="black"/>
</svg>
