<svg
    width="30"
    height="30"
    viewBox="0 0 30 30"
    fill="none"
    xmlns="http://www.w3.org/2000/svg"
>
    <circle cx="15" cy="15" r="15" fill="#F1F1F1" />
    <path
    d="M14.1505 9.34651L9.35006 14.1515C9.12584 14.3773 9 14.6828 9 15.0012C9 15.3196 9.12584 15.6251 9.35006 15.851L14.1505 20.6558C14.3762 20.8777 14.6804 21.0014 14.9968 21C15.3132 20.9986 15.6162 20.8721 15.8399 20.6482C16.0636 20.4242 16.19 20.1209 16.1914 19.8042C16.1928 19.4876 16.0692 19.1831 15.8476 18.9572L13.0956 16.2025H19.7998C20.1181 16.2025 20.4234 16.0759 20.6485 15.8506C20.8736 15.6253 21 15.3198 21 15.0012C21 14.6826 20.8736 14.377 20.6485 14.1517C20.4234 13.9264 20.1181 13.7998 19.7998 13.7998H13.0956L15.8476 11.0452C16.0703 10.8194 16.1948 10.5147 16.1938 10.1974C16.1928 9.88013 16.0664 9.57614 15.8423 9.3518C15.6181 9.12747 15.3144 9.001 14.9975 9.00001C14.6805 8.99901 14.376 9.12358 14.1505 9.34651Z"
    fill="#181818"
    />
</svg>