<svg width="20" height="20" viewBox="0 0 20 20" fill="none" xmlns="http://www.w3.org/2000/svg">
    <circle cx="10" cy="10" r="9.5" stroke="black"/>
    <path d="M13 14H10.5V11.47C11.5997 11.3471 12.6155 10.8232 13.3534 9.99866C14.0913 9.17408 14.4995 8.10653 14.5 7C14.5025 6.41831 14.3886 5.842 14.165 5.305C14.1391 5.24499 14.1018 5.19063 14.055 5.145L14 5.105C13.9681 5.07871 13.9327 5.05685 13.895 5.04C13.8507 5.01948 13.8034 5.00598 13.755 5H13.705H6.29499H6.24999C6.20037 5.00228 6.15143 5.0124 6.10499 5.03C6.06863 5.05123 6.03357 5.0746 5.99999 5.1L5.93999 5.145C5.89322 5.19063 5.85585 5.24499 5.82999 5.305C5.60808 5.84235 5.49588 6.41865 5.49999 7C5.50051 8.10653 5.90871 9.17408 6.6466 9.99866C7.38448 10.8232 8.40031 11.3471 9.49999 11.47V14H6.99999C6.86738 14 6.7402 14.0527 6.64643 14.1464C6.55267 14.2402 6.49999 14.3674 6.49999 14.5C6.49999 14.6326 6.55267 14.7598 6.64643 14.8536C6.7402 14.9473 6.86738 15 6.99999 15H13C13.1326 15 13.2598 14.9473 13.3535 14.8536C13.4473 14.7598 13.5 14.6326 13.5 14.5C13.5 14.3674 13.4473 14.2402 13.3535 14.1464C13.2598 14.0527 13.1326 14 13 14ZM6.49999 7C6.49905 6.66136 6.54791 6.32443 6.64499 6H13.355C13.4521 6.32443 13.5009 6.66136 13.5 7C13.5 7.92826 13.1312 8.8185 12.4749 9.47487C11.8185 10.1313 10.9282 10.5 9.99999 10.5C9.07173 10.5 8.18149 10.1313 7.52511 9.47487C6.86874 8.8185 6.49999 7.92826 6.49999 7Z" fill="black"/>
</svg>
