<svg width="200" height="142" viewBox="0 0 200 142" fill="none" xmlns="http://www.w3.org/2000/svg">
<path d="M158.178 26.797C146.636 16.9019 133.373 9.16483 118.921 4.51412C73.2637 -10.1825 5.3296 11.191 0.259184 65.9394C-1.15582 81.2957 3.24012 97.307 13.0272 109.176C26.2999 125.268 47.4824 132.265 67.915 135.827C99.9082 141.411 132.897 140.454 164.72 134.065C175.634 131.879 187.261 128.524 194.048 119.632C198.722 113.507 200.416 105.449 199.916 97.731C199.416 90.0128 196.892 82.5632 193.826 75.4717C185.78 56.8594 173.488 39.9199 158.178 26.797Z" fill="#EAF9FF"/>
<path d="M9.63592 21.5903C8.79635 23.117 9.27274 25.8782 10.4802 26.7735C11.0887 27.2447 11.848 27.4426 12.4423 27.9138C13.6498 28.8562 13.8998 30.6185 13.7677 32.1546C13.6357 33.6907 13.2064 35.2268 13.4611 36.7535C13.8149 38.9869 15.5176 40.7539 17.2675 42.1864C19.0174 43.6188 20.9606 44.9382 22.1304 46.8983C23.0313 48.3826 23.4416 50.1967 24.6113 51.4595C25.7811 52.7223 27.5451 53.3113 29.2431 53.6742C32.3597 54.3461 35.5651 54.5052 38.733 54.1454C40.714 53.9239 42.8837 53.3585 43.9544 51.6763C44.6808 50.5407 44.7515 49.113 44.6666 47.7653C44.6547 46.348 44.2744 44.9581 43.5629 43.7319C42.6903 42.3984 41.2612 41.5644 39.9735 40.6314C38.6859 39.6985 37.4218 38.5016 37.1718 36.9325C36.8841 35.1278 38.0067 33.1629 37.1718 31.5232C36.4171 30.0342 34.4786 29.6761 32.8089 29.5818C31.1392 29.4876 29.2384 29.3604 28.2149 28.0457C27.0546 26.5521 27.5498 24.116 26.1395 22.8626C24.9179 21.7741 23.003 22.217 21.5125 22.8861C20.022 23.5552 18.4136 24.4175 16.843 23.9652C15.7865 23.6636 14.9893 22.8202 14.1875 22.0804C13.3857 21.3406 12.4329 20.5961 11.3575 20.6008C11.0068 20.5895 10.6599 20.6761 10.3558 20.8509C10.0517 21.0257 9.8024 21.2818 9.63592 21.5903Z" fill="#2E88BF"/>
<path d="M57.9534 66.2126L57.9157 66.2408C57.8919 66.2542 57.8656 66.2627 57.8385 66.2659C57.8114 66.2692 57.7838 66.267 57.7575 66.2595C57.7313 66.2521 57.7067 66.2395 57.6853 66.2226C57.6638 66.2056 57.646 66.1846 57.6327 66.1607C55.7036 62.8294 47.6051 55.1866 44.5109 53.5986C40.6763 51.629 36.3322 49.3908 31.842 42.9119C23.9746 31.5419 21.0219 30.9246 17.8948 30.265L17.5977 30.2037C14.2347 29.4875 12.1829 24.3561 12.098 24.1347C12.0806 24.084 12.0831 24.0285 12.105 23.9796C12.1269 23.9306 12.1665 23.8917 12.2159 23.8708C12.2666 23.8505 12.3233 23.851 12.3736 23.8722C12.4239 23.8934 12.4639 23.9335 12.4848 23.9839C12.4848 24.0357 14.5365 29.1294 17.6731 29.7985L17.9703 29.8644C21.1823 30.5382 24.2104 31.1744 32.1721 42.6716C36.6058 49.0704 40.9027 51.2803 44.6949 53.2311C47.8409 54.852 56.0149 62.5184 57.9817 65.9534C58.0051 65.9941 58.0149 66.041 58.0098 66.0876C58.0047 66.1342 57.985 66.1779 57.9534 66.2126Z" fill="#397CB2"/>
<path d="M39.9405 61.6516C39.4383 62.4855 38.6289 63.0895 37.6859 63.3338C33.9126 64.2291 30.7194 58.8904 26.998 59.9176C25.5358 60.3228 24.4934 61.6422 23.0784 62.1888C21.2672 62.8861 19.2107 62.1888 17.5552 61.1804C15.8996 60.172 14.4186 58.8244 12.6216 58.1176C11.1122 57.5098 9.46611 57.3637 7.85773 57.1046C6.24935 56.8454 4.60795 56.459 3.32501 55.4554C2.27791 54.659 0.943096 52.5057 1.69305 51.1062C2.63638 49.4099 5.82485 49.9848 7.29645 50.39C9.21141 50.913 11.2018 51.6858 13.131 51.2005C15.961 50.4795 17.541 47.3319 20.206 46.1492C22.2813 45.2351 24.6962 45.6403 26.8565 46.3377C30.7657 47.6051 34.3373 49.7394 37.3039 52.5811C38.8934 54.1077 40.3461 55.9454 40.6716 58.1271C40.8484 59.3512 40.5897 60.5985 39.9405 61.6516Z" fill="#45AFCF"/>
<path d="M59.3826 64.0828C59.3756 64.0366 59.3512 63.9948 59.3144 63.9659C59.2776 63.937 59.2311 63.9232 59.1845 63.9273C52.3595 64.6436 35.6012 59.8986 30.6958 57.7735C26.5263 55.9547 22.9228 54.3856 19.4089 55.1065C11.999 56.6238 5.22585 53.0992 5.1551 53.0615C5.13417 53.0477 5.11056 53.0384 5.08581 53.0342C5.06105 53.0301 5.0357 53.0311 5.01139 53.0374C4.98708 53.0437 4.96435 53.0549 4.94469 53.0705C4.92502 53.0861 4.90886 53.1057 4.89723 53.1279C4.88561 53.1501 4.87879 53.1745 4.87721 53.1996C4.87564 53.2246 4.87935 53.2497 4.88809 53.2732C4.89684 53.2967 4.91043 53.3181 4.92799 53.336C4.94555 53.3539 4.96668 53.368 4.99001 53.3772C5.06076 53.4149 11.9424 57.0007 19.4843 55.4552C22.885 54.7578 26.4367 56.3081 30.5543 58.0986C35.4785 60.2473 52.3029 65.0064 59.2222 64.2854C59.2458 64.2831 59.2687 64.2761 59.2896 64.2648C59.3104 64.2536 59.3289 64.2383 59.3438 64.2199C59.3587 64.2015 59.3698 64.1804 59.3765 64.1576C59.3831 64.1349 59.3852 64.1111 59.3826 64.0875V64.0828Z" fill="#5291CE"/>
<path d="M33.0494 7.47794C32.5473 7.63499 32.0906 7.91117 31.7185 8.28289C31.3465 8.6546 31.07 9.11079 30.9128 9.61246C29.927 13.0899 34.6861 15.0077 35.1578 18.0375C35.521 20.3228 33.5447 22.2405 31.7429 23.6918C30.2477 24.9028 28.7148 26.1373 27.696 27.7677C26.6772 29.398 26.2339 31.5373 27.0734 33.2618C27.9743 35.1466 30.0355 36.056 31.6722 37.3188C33.9598 39.1094 35.5257 41.6539 37.2614 44.0004C38.9972 46.347 41.0819 48.637 43.8648 49.471C46.6476 50.305 50.2275 49.1035 51.0671 46.314C52.0387 43.0863 49.1003 39.9057 49.1804 36.5367C49.237 34.2466 50.6662 32.2629 51.6473 30.1943C52.6283 28.1258 53.0623 25.3881 51.468 23.7578C49.77 22.0285 46.6712 22.4761 44.9354 20.7893C43.0771 18.9893 43.7704 15.9406 43.3129 13.3962C43.0584 12.0648 42.4639 10.8217 41.5872 9.78731C40.7104 8.75291 39.581 7.96229 38.3085 7.49207C36.6021 6.92548 34.7588 6.92053 33.0494 7.47794Z" fill="#45AFCF"/>
<path d="M59.2081 64.0451C59.168 64.0793 59.1169 64.0981 59.0642 64.0981C59.0115 64.0981 58.9605 64.0793 58.9204 64.0451C42.3507 48.359 37.9218 31.198 39.2236 25.2515C40.8555 17.8348 35.9832 11.959 35.9219 11.8977C35.9019 11.878 35.8861 11.8545 35.8753 11.8287C35.8644 11.8028 35.8589 11.775 35.8589 11.747C35.8589 11.7189 35.8644 11.6911 35.8753 11.6653C35.8861 11.6394 35.9019 11.6159 35.9219 11.5962C35.9435 11.5776 35.9687 11.5634 35.9958 11.5545C36.023 11.5456 36.0516 11.5422 36.0801 11.5443C36.1086 11.5465 36.1363 11.5543 36.1618 11.5673C36.1873 11.5802 36.2099 11.598 36.2285 11.6197C36.2756 11.681 41.28 17.7453 39.6103 25.3457C38.3274 31.198 42.7611 48.1894 59.1798 63.7247C59.2003 63.7441 59.2167 63.7675 59.2279 63.7934C59.2391 63.8193 59.2449 63.8473 59.2449 63.8755C59.2449 63.9037 59.2391 63.9317 59.2279 63.9576C59.2167 63.9835 59.2003 64.0069 59.1798 64.0263L59.2081 64.0451Z" fill="#5291CE"/>
<path d="M58.0148 41.5312C58.411 39.8888 59.2518 38.3868 60.4452 37.1896C61.6385 35.9924 63.1384 35.1462 64.7808 34.7434C66.4233 34.3406 68.145 34.3968 69.7576 34.9059C71.3702 35.415 72.8115 36.3573 73.9241 37.6297C74.6693 38.4779 75.3391 39.5145 76.4192 39.8349C77.4191 40.1271 78.4662 39.7124 79.4945 39.5428C80.5292 39.3698 81.591 39.4614 82.5807 39.8091C83.5704 40.1568 84.4559 40.7493 85.1545 41.5312H58.0148Z" fill="white"/>
<path d="M108.45 20.5489C108.008 18.7242 107.074 17.0558 105.747 15.7259C104.421 14.396 102.754 13.4558 100.929 13.008C99.1046 12.5601 97.1916 12.6218 95.3995 13.1863C93.6073 13.7509 92.0049 14.7966 90.7673 16.2091C89.9371 17.1515 89.1919 18.3107 87.9892 18.6641C86.8808 18.9892 85.7157 18.5274 84.5743 18.3342C83.4259 18.1453 82.2483 18.2493 81.1508 18.6364C80.0533 19.0236 79.0715 19.6814 78.2964 20.5489H108.45Z" fill="white"/>
<path d="M155.749 47.5344C155.471 46.3737 154.879 45.3116 154.038 44.4645C153.197 43.6174 152.138 43.018 150.978 42.7319C149.819 42.4458 148.602 42.484 147.463 42.8424C146.324 43.2008 145.305 43.8655 144.518 44.7638C143.99 45.3622 143.518 46.0973 142.754 46.3188C141.99 46.5402 141.306 46.2339 140.58 46.1114C139.85 45.9933 139.103 46.0608 138.406 46.3079C137.709 46.555 137.086 46.9736 136.594 47.525L155.749 47.5344Z" fill="white"/>
<path d="M109.266 122.78H87.1307V139.493H109.266V122.78Z" fill="#749CF3"/>
<path d="M142.957 58.0139H53.4349C50.9289 58.0139 48.8974 60.0434 48.8974 62.5468V118.308C48.8974 120.812 50.9289 122.841 53.4349 122.841H142.957C145.463 122.841 147.495 120.812 147.495 118.308V62.5468C147.495 60.0434 145.463 58.0139 142.957 58.0139Z" fill="white"/>
<path d="M142.962 124.165H53.4349C51.8803 124.164 50.3898 123.546 49.2906 122.448C48.1914 121.35 47.5733 119.861 47.5721 118.308V62.5467C47.5745 60.9941 48.193 59.5058 49.292 58.4079C50.3909 57.3101 51.8807 56.6922 53.4349 56.6897H142.962C144.516 56.6922 146.006 57.3101 147.105 58.4079C148.204 59.5058 148.822 60.9941 148.825 62.5467V118.308C148.823 119.861 148.205 121.35 147.106 122.448C146.007 123.546 144.516 124.164 142.962 124.165ZM53.4349 59.3425C52.5846 59.3438 51.7695 59.6818 51.1683 60.2824C50.5671 60.883 50.2288 61.6973 50.2275 62.5467V118.308C50.2288 119.158 50.5669 119.973 51.168 120.574C51.7691 121.175 52.5842 121.514 53.4349 121.517H142.962C143.813 121.516 144.63 121.177 145.232 120.576C145.834 119.974 146.173 119.159 146.174 118.308V62.5467C146.171 61.6968 145.832 60.8826 145.23 60.2821C144.628 59.6816 143.813 59.3438 142.962 59.3425H53.4349Z" fill="#8DB1FF"/>
<path d="M119.388 142H77.0088C77.01 140.823 77.4792 139.694 78.3132 138.861C79.1472 138.029 80.2778 137.562 81.4566 137.562H114.945C115.528 137.562 116.106 137.676 116.645 137.899C117.184 138.122 117.674 138.449 118.087 138.862C118.499 139.274 118.827 139.763 119.05 140.302C119.273 140.84 119.388 141.417 119.388 142Z" fill="#5582E4"/>
<path d="M131.161 107.678H65.3114L65.302 73.5068L97.7385 64.3892L131.283 73.5021L131.161 107.678Z" fill="#8DBEF7"/>
<path d="M114.384 47.7371H71.7733C71.2553 47.7395 70.7594 47.9465 70.3936 48.3128C70.0278 48.6792 69.8218 49.1751 69.8206 49.6925V110.321C69.8218 110.839 70.0278 111.335 70.3936 111.701C70.7594 112.067 71.2553 112.274 71.7733 112.277H124.623C125.142 112.274 125.638 112.068 126.005 111.701C126.371 111.335 126.578 110.839 126.581 110.321V60.7845L114.384 47.7371Z" fill="#FF8903"/>
<path d="M114.384 47.7463L113.954 58.3294C113.937 58.8487 114.125 59.3541 114.478 59.7353C114.832 60.1166 115.321 60.3429 115.841 60.365L126.59 60.7796L114.384 47.7463Z" fill="#F38C5F"/>
<path d="M69.8159 73.502L69.8112 77.5307L98.8894 95.6529L126.576 77.215L126.581 73.502L98.2857 90.8656L69.8159 73.502Z" fill="#F38C5F"/>
<path d="M131.288 73.5068L98.196 94.7107L65.3067 73.5068C64.98 73.7705 64.7161 74.1034 64.5341 74.4816C64.3522 74.8598 64.2568 75.2736 64.2549 75.6932V113.761C64.2549 114.511 64.553 115.23 65.0838 115.76C65.6145 116.291 66.3343 116.588 67.0849 116.588H129.345C130.095 116.588 130.815 116.291 131.346 115.76C131.877 115.23 132.175 114.511 132.175 113.761V75.6838C132.172 74.871 131.854 74.0909 131.288 73.5068Z" fill="#97E4FF"/>
<path d="M98.196 94.7107L65.2171 115.948C65.7175 116.353 66.3415 116.576 66.9859 116.579H129.236C129.959 116.575 130.652 116.295 131.175 115.797L98.196 94.7107Z" fill="#51B7DB"/>
<path d="M115.289 70.9669H81.1264C80.7812 70.9669 80.45 70.8299 80.2059 70.586C79.9618 70.3421 79.8246 70.0113 79.8246 69.6664C79.8259 69.3223 79.9636 68.9927 80.2076 68.7499C80.4516 68.507 80.782 68.3706 81.1264 68.3706H115.308C115.479 68.37 115.648 68.4031 115.806 68.4679C115.964 68.5327 116.107 68.6281 116.228 68.7485C116.349 68.8689 116.445 69.0119 116.511 69.1694C116.576 69.327 116.61 69.4958 116.61 69.6664C116.611 69.839 116.577 70.0099 116.51 70.1692C116.444 70.3286 116.346 70.473 116.223 70.5942C116.1 70.7153 115.954 70.8107 115.794 70.8747C115.634 70.9387 115.462 70.97 115.289 70.9669Z" fill="white"/>
<path d="M115.289 65.8076H81.1264C80.7815 65.8063 80.4511 65.6689 80.2073 65.4253C79.9634 65.1817 79.8259 64.8516 79.8246 64.5071C79.8246 64.1621 79.9618 63.8313 80.2059 63.5875C80.45 63.3436 80.7812 63.2066 81.1264 63.2066H115.308C115.479 63.2059 115.649 63.2391 115.807 63.3043C115.965 63.3694 116.109 63.4652 116.23 63.5861C116.351 63.707 116.447 63.8506 116.512 64.0086C116.577 64.1667 116.611 64.3361 116.61 64.5071C116.61 64.6794 116.576 64.8501 116.509 65.0091C116.442 65.1682 116.345 65.3124 116.222 65.4334C116.099 65.5544 115.953 65.6498 115.793 65.714C115.633 65.7783 115.462 65.8101 115.289 65.8076Z" fill="white"/>
<path d="M115.289 76.1313H81.1264C80.7815 76.13 80.4511 75.9926 80.2073 75.749C79.9634 75.5054 79.8259 75.1753 79.8246 74.8308C79.8259 74.4862 79.9634 74.1562 80.2073 73.9126C80.4511 73.6689 80.7815 73.5315 81.1264 73.5303H115.308C115.653 73.5303 115.984 73.6673 116.229 73.9112C116.473 74.1551 116.61 74.4859 116.61 74.8308C116.61 75.0032 116.576 75.1738 116.509 75.3329C116.442 75.4919 116.345 75.6361 116.222 75.7571C116.099 75.8781 115.953 75.9735 115.793 76.0378C115.633 76.102 115.462 76.1338 115.289 76.1313Z" fill="white"/>
<path d="M190.978 99.3848L191.048 96.0251L189.162 95.6057C189.016 94.2748 188.699 92.9682 188.218 91.7184L189.69 90.4744L188.067 87.5294L186.214 88.1137C185.416 87.0386 184.484 86.0696 183.44 85.23L184.096 83.4112L181.219 81.6725L179.912 83.086C178.683 82.5487 177.389 82.1733 176.063 81.9693L175.724 80.0845L172.361 80.0186L171.941 81.9033C170.609 82.0483 169.301 82.3651 168.05 82.8457L166.805 81.3709L163.857 82.9918L164.437 84.8389C163.361 85.6344 162.391 86.5639 161.55 87.6048L159.73 86.9499L158.008 89.8289L159.423 91.1294C158.886 92.3574 158.51 93.6498 158.305 94.9743L156.419 95.3183L156.348 98.678L158.234 99.0926C158.377 100.426 158.694 101.734 159.178 102.985L157.701 104.229L159.324 107.174L161.173 106.589C161.968 107.667 162.898 108.638 163.942 109.478L163.286 111.297L166.168 113.035L167.47 111.622C168.698 112.161 169.992 112.537 171.318 112.738L171.658 114.623L175.026 114.689L175.441 112.804C176.775 112.662 178.085 112.345 179.337 111.862L180.577 113.332L183.525 111.711L182.945 109.869C184.021 109.072 184.991 108.141 185.832 107.098L187.652 107.753L189.397 104.879L187.982 103.578C188.522 102.35 188.898 101.055 189.1 99.7287L190.978 99.3848ZM186.733 97.6178C186.684 100.196 185.872 102.702 184.397 104.819C182.923 106.936 180.853 108.568 178.45 109.509C176.047 110.45 173.418 110.658 170.897 110.106C168.375 109.554 166.074 108.268 164.285 106.409C162.496 104.55 161.299 102.203 160.845 99.6643C160.392 97.1256 160.702 94.5097 161.737 92.1474C162.773 89.7852 164.486 87.7828 166.661 86.3938C168.836 85.0048 171.374 84.2914 173.955 84.3441C177.408 84.4196 180.691 85.8587 183.085 88.3463C185.479 90.834 186.789 94.1676 186.728 97.6178H186.733Z" fill="#9DE4FA"/>
<path d="M126.84 34.1871L126.623 32.3447L125.566 32.2599C125.384 31.5443 125.11 30.8553 124.75 30.2102L125.458 29.4233L124.354 27.939L123.411 28.4102C122.897 27.8818 122.317 27.4224 121.684 27.0437L121.901 26.0024L120.203 25.2673L119.595 26.1437C118.884 25.9295 118.148 25.8106 117.406 25.7903L117.081 24.782L115.237 24.9987L115.152 26.0542C114.436 26.2362 113.746 26.5102 113.1 26.8694L112.312 26.1626L110.827 27.2699L111.298 28.2123C110.772 28.7283 110.314 29.3095 109.935 29.9416L108.893 29.7201L108.138 31.4447L109.015 32.0478C108.813 32.7578 108.705 33.4913 108.695 34.2295L107.685 34.5593L107.902 36.397L108.959 36.4818C109.14 37.1976 109.415 37.8867 109.775 38.5315L109.067 39.3231L110.176 40.8074L111.119 40.3362C111.636 40.8634 112.217 41.3226 112.85 41.7027L112.647 42.7534L114.35 43.4838L114.954 42.6121C115.665 42.8128 116.399 42.919 117.138 42.9278L117.468 43.9361L119.307 43.7241L119.392 42.6639C120.109 42.4826 120.798 42.2085 121.444 41.8487L122.236 42.5602L123.722 41.4529L123.25 40.5105C123.777 39.9948 124.235 39.4136 124.613 38.7812L125.661 38.998L126.392 37.3017L125.519 36.6986C125.72 35.9868 125.826 35.2517 125.835 34.5122L126.84 34.1871ZM124.387 33.5415C124.553 34.9512 124.296 36.3784 123.65 37.6425C123.004 38.9066 121.997 39.9508 120.757 40.6432C119.516 41.3356 118.098 41.6449 116.682 41.5322C115.266 41.4195 113.915 40.8897 112.8 40.0098C111.685 39.13 110.856 37.9396 110.418 36.5893C109.981 35.2389 109.954 33.7892 110.341 32.4235C110.728 31.0578 111.512 29.8374 112.593 28.9167C113.674 27.996 115.005 27.4164 116.416 27.2511C117.354 27.1399 118.305 27.2145 119.214 27.4705C120.123 27.7265 120.973 28.1589 121.715 28.743C122.457 29.3271 123.077 30.0516 123.538 30.8749C124 31.6982 124.295 32.6044 124.406 33.5415H124.387Z" fill="#9DE4FA"/>
<path d="M35.6908 127.346H24.4368C24.359 127.346 24.2819 127.33 24.2101 127.3C24.1383 127.27 24.0731 127.227 24.0182 127.171C23.9634 127.116 23.9201 127.051 23.8907 126.979C23.8614 126.907 23.8466 126.83 23.8472 126.752C23.8466 126.674 23.8614 126.597 23.8907 126.525C23.9201 126.453 23.9634 126.388 24.0182 126.332C24.0731 126.277 24.1383 126.233 24.2101 126.204C24.2819 126.174 24.359 126.158 24.4368 126.158H35.6908C35.769 126.158 35.8466 126.173 35.919 126.202C35.9913 126.232 36.0571 126.275 36.1124 126.331C36.1677 126.386 36.2115 126.452 36.2411 126.524C36.2708 126.596 36.2857 126.674 36.2851 126.752C36.2857 126.83 36.2708 126.908 36.2411 126.98C36.2115 127.052 36.1677 127.118 36.1124 127.173C36.0571 127.228 35.9913 127.272 35.919 127.302C35.8466 127.331 35.769 127.346 35.6908 127.346Z" fill="white"/>
<path d="M34.8748 125.287H23.6161C23.4597 125.287 23.3098 125.225 23.1992 125.114C23.0886 125.004 23.0265 124.854 23.0265 124.698C23.0265 124.541 23.0886 124.392 23.1992 124.281C23.3098 124.171 23.4597 124.109 23.6161 124.109H34.8748C35.0312 124.109 35.1811 124.171 35.2917 124.281C35.4023 124.392 35.4644 124.541 35.4644 124.698C35.4644 124.854 35.4023 125.004 35.2917 125.114C35.1811 125.225 35.0312 125.287 34.8748 125.287Z" fill="white"/>
<path d="M36.4973 129.4H25.2386C25.0823 129.4 24.9323 129.338 24.8217 129.228C24.7112 129.117 24.6491 128.967 24.6491 128.811C24.6491 128.655 24.7112 128.505 24.8217 128.395C24.9323 128.284 25.0823 128.222 25.2386 128.222H36.4973C36.6537 128.222 36.8037 128.284 36.9142 128.395C37.0248 128.505 37.0869 128.655 37.0869 128.811C37.0869 128.967 37.0248 129.117 36.9142 129.228C36.8037 129.338 36.6537 129.4 36.4973 129.4Z" fill="white"/>
</svg>