<svg width="40" height="40" viewBox="0 0 40 40" fill="none" xmlns="http://www.w3.org/2000/svg">
     <path d="M18.8166 26.1833C18.9751 26.3351 19.162 26.454 19.3666 26.5333C19.7724 26.7 20.2275 26.7 20.6333 26.5333C20.8378 26.454 21.0247 26.3351 21.1833 26.1833L26.1833 21.1833C26.4971 20.8695 26.6734 20.4438 26.6734 20C26.6734 19.5562 26.4971 19.1305 26.1833 18.8167C25.8694 18.5028 25.4438 18.3265 24.9999 18.3265C24.5561 18.3265 24.1304 18.5028 23.8166 18.8167L21.6666 20.9833V15C21.6666 14.558 21.491 14.1341 21.1784 13.8215C20.8659 13.5089 20.4419 13.3333 19.9999 13.3333C19.5579 13.3333 19.134 13.5089 18.8214 13.8215C18.5088 14.1341 18.3333 14.558 18.3333 15V20.9833L16.1833 18.8167C16.0283 18.6605 15.844 18.5365 15.6409 18.4518C15.4378 18.3672 15.2199 18.3237 14.9999 18.3237C14.7799 18.3237 14.5621 18.3672 14.359 18.4518C14.1559 18.5365 13.9715 18.6605 13.8166 18.8167C13.6604 18.9716 13.5364 19.1559 13.4518 19.359C13.3672 19.5621 13.3236 19.78 13.3236 20C13.3236 20.22 13.3672 20.4379 13.4518 20.641C13.5364 20.8441 13.6604 21.0284 13.8166 21.1833L18.8166 26.1833ZM19.9999 36.6667C23.2963 36.6667 26.5186 35.6892 29.2594 33.8578C32.0002 32.0265 34.1365 29.4235 35.3979 26.3781C36.6594 23.3326 36.9894 19.9815 36.3463 16.7485C35.7033 13.5155 34.1159 10.5458 31.785 8.21489C29.4542 5.88401 26.4844 4.29667 23.2514 3.65358C20.0184 3.01049 16.6673 3.34055 13.6219 4.60201C10.5764 5.86347 7.97345 7.99968 6.14209 10.7405C4.31073 13.4813 3.33325 16.7036 3.33325 20C3.33325 24.4203 5.0892 28.6595 8.21481 31.7851C9.76245 33.3328 11.5998 34.5604 13.6219 35.398C15.644 36.2356 17.8112 36.6667 19.9999 36.6667ZM19.9999 6.66667C22.637 6.66667 25.2149 7.44866 27.4075 8.91374C29.6002 10.3788 31.3091 12.4612 32.3183 14.8976C33.3275 17.3339 33.5915 20.0148 33.0771 22.6012C32.5626 25.1876 31.2927 27.5634 29.428 29.4281C27.5633 31.2928 25.1875 32.5627 22.6011 33.0771C20.0147 33.5916 17.3338 33.3276 14.8975 32.3184C12.4611 31.3092 10.3787 29.6003 8.91366 27.4076C7.44857 25.2149 6.66659 22.6371 6.66659 20C6.66659 16.4638 8.07134 13.0724 10.5718 10.5719C13.0723 8.07143 16.4637 6.66667 19.9999 6.66667Z" fill="#008BD9"/>
</svg>
