<svg width="30" height="30" viewBox="0 0 30 30" fill="none" xmlns="http://www.w3.org/2000/svg">
    <ellipse cx="15.1786" cy="15" rx="14.8214" ry="15" fill="#F1F1F1"/>
    <path d="M21.1072 12.0266H18.1165V8.99998C18.1165 8.82317 18.0471 8.6536 17.9236 8.52858C17.8001 8.40355 17.6325 8.33331 17.4578 8.33331H9.25004C9.07533 8.33331 8.90778 8.40355 8.78425 8.52858C8.66071 8.6536 8.59131 8.82317 8.59131 8.99998V17.3066C8.59131 17.4835 8.66071 17.653 8.78425 17.7781C8.90778 17.9031 9.07533 17.9733 9.25004 17.9733H12.2407V21C12.2407 21.1768 12.3101 21.3464 12.4336 21.4714C12.5571 21.5964 12.7247 21.6666 12.8994 21.6666H21.1072C21.2819 21.6666 21.4494 21.5964 21.573 21.4714C21.6965 21.3464 21.7659 21.1768 21.7659 21V12.6933C21.7659 12.5165 21.6965 12.3469 21.573 12.2219C21.4494 12.0969 21.2819 12.0266 21.1072 12.0266ZM20.4485 20.3333H13.5581V17.3066C13.5581 17.1298 13.4887 16.9603 13.3652 16.8352C13.2417 16.7102 13.0741 16.64 12.8994 16.64H9.90877V9.66665H16.7991V12.6933C16.7991 12.8701 16.8685 13.0397 16.992 13.1647C17.1156 13.2897 17.2831 13.36 17.4578 13.36H20.4485V20.3333Z" fill="#181818"/>
</svg>
