<svg width="40" height="40" viewBox="0 0 40 40" fill="none" xmlns="http://www.w3.org/2000/svg">
<path d="M21.113 14.2777C20.6554 13.82 19.9134 13.82 19.4557 14.2777L18.5413 15.192C17.9266 14.7844 17.2313 14.4889 16.4843 14.3367V13.0469C16.4843 12.3997 15.9596 11.875 15.3124 11.875C14.6652 11.875 14.1405 12.3997 14.1405 13.0469V14.3366C13.3935 14.4889 12.6984 14.7844 12.0835 15.192L11.1691 14.2776C10.7116 13.8198 9.96953 13.82 9.51188 14.2776C9.05422 14.7352 9.05422 15.4772 9.51188 15.9348L10.4262 16.8492C10.0186 17.464 9.72312 18.1592 9.57094 18.9062H8.28125C7.63406 18.9062 7.10938 19.4309 7.10938 20.0781C7.10938 20.7253 7.63406 21.25 8.28125 21.25H9.57102C9.7232 21.997 10.0188 22.6922 10.4263 23.307L9.51195 24.2214C9.0543 24.6791 9.0543 25.421 9.51195 25.8787C9.96953 26.3363 10.7116 26.3363 11.1692 25.8787L12.0836 24.9643C12.6984 25.372 13.3936 25.6674 14.1406 25.8196V27.1094C14.1406 27.7566 14.6653 28.2812 15.3125 28.2812C15.9597 28.2812 16.4844 27.7566 16.4844 27.1094V25.8196C17.2314 25.6673 17.9266 25.3719 18.5414 24.9643L19.4558 25.8787C19.9133 26.3363 20.6553 26.3363 21.113 25.8787C21.5707 25.421 21.5707 24.6791 21.113 24.2214L20.1987 23.307C20.6063 22.6923 20.9018 21.997 21.054 21.25H22.3438C22.9909 21.25 23.5156 20.7253 23.5156 20.0781C23.5156 19.4309 22.9909 18.9062 22.3438 18.9062H21.054C20.9018 18.1592 20.6062 17.4641 20.1987 16.8492L21.113 15.9348C21.5706 15.4773 21.5706 14.7352 21.113 14.2777ZM15.3125 23.5938C13.374 23.5938 11.7969 22.0166 11.7969 20.0781C11.7969 18.1396 13.374 16.5625 15.3125 16.5625C17.251 16.5625 18.8281 18.1396 18.8281 20.0781C18.8281 22.0166 17.251 23.5938 15.3125 23.5938ZM27.0312 4.6875H20.9705C20.5991 3.64031 19.7452 2.81953 18.6771 2.49484C18.2386 1.0525 16.8962 0 15.3125 0C13.7288 0 12.3864 1.0525 11.948 2.49484C10.8798 2.81953 10.0259 3.64031 9.65453 4.6875H3.59375C2.94656 4.6875 2.42188 5.21219 2.42188 5.85938V38.8281C2.42188 39.4753 2.94656 40 3.59375 40H27.0312C27.6784 40 28.2031 39.4753 28.2031 38.8281V5.85938C28.2031 5.21219 27.6784 4.6875 27.0312 4.6875ZM11.7969 5.85938C11.7969 5.2132 12.3226 4.6875 12.9688 4.6875C13.6159 4.6875 14.1406 4.16281 14.1406 3.51562C14.1406 2.86945 14.6663 2.34375 15.3125 2.34375C15.9587 2.34375 16.4844 2.86945 16.4844 3.51562C16.4844 4.16281 17.0091 4.6875 17.6562 4.6875C18.3024 4.6875 18.8281 5.2132 18.8281 5.85938V7.03125H11.7969V5.85938ZM25.8594 37.6562H4.76562V35.3125H25.8594V37.6562ZM25.8594 32.9688H4.76562V7.03125H9.45312V8.20312C9.45312 8.85031 9.97781 9.375 10.625 9.375H20C20.6472 9.375 21.1719 8.85031 21.1719 8.20312V7.03125H25.8594V32.9688ZM35.2344 7.38906V6.01562C35.2344 5.36844 34.7097 4.84375 34.0625 4.84375C33.4153 4.84375 32.8906 5.36844 32.8906 6.01562V7.38906C31.5266 7.87281 30.5469 9.17539 30.5469 10.7031V24.3853C30.5469 29.4295 31.3557 34.4134 32.9508 39.1987C33.1103 39.6773 33.5581 40 34.0625 40C34.5669 40 35.0147 39.6773 35.1742 39.1987C36.7693 34.4134 37.5781 29.4295 37.5781 24.3853V10.7031C37.5781 9.17539 36.5984 7.87281 35.2344 7.38906ZM35.2344 24.3853C35.2344 27.8134 34.8411 31.2123 34.0625 34.5335C33.2839 31.2122 32.8906 27.8133 32.8906 24.3853V21.25H35.2344V24.3853ZM35.2344 18.9062H32.8906V10.7031C32.8906 10.057 33.4163 9.53125 34.0625 9.53125C34.7087 9.53125 35.2344 10.057 35.2344 10.7031V18.9062Z" fill="#FF8903"/>
</svg>
