<svg width="40" height="40" viewBox="0 0 40 40" fill="none" xmlns="http://www.w3.org/2000/svg">
<path d="M36.2023 32.1465C36.0267 32.205 35.849 32.264 35.6704 32.323C38.4597 28.8205 40 24.5161 40 20C40 14.7987 37.9069 9.7332 34.0869 5.91313C30.2752 2.10133 25.2123 0 20 0C19.3528 0 18.8281 0.524687 18.8281 1.17188C18.8281 1.81906 19.3528 2.34375 20 2.34375C24.6449 2.34375 29.0591 4.19992 32.4297 7.57039C35.8001 10.9409 37.6562 15.3551 37.6562 20C37.6562 25.3963 35.1536 30.4563 30.79 33.8826C30.2812 34.282 30.1924 35.0182 30.5915 35.5273C30.9592 35.9964 31.4594 36.0462 32.0299 35.9092C32.9755 35.6819 36.0272 34.6744 36.9434 34.3699C37.5573 34.1652 37.8891 33.5016 37.6845 32.8876C37.4798 32.2737 36.816 31.9418 36.2023 32.1465ZM32.4297 27.4577L29.4886 24.5166C29.6453 24.1896 29.7846 23.8555 29.9061 23.5156H34.0625C34.7097 23.5156 35.2344 22.9909 35.2344 22.3438V17.6562C35.2344 17.0091 34.7097 16.4844 34.0625 16.4844H29.9061C29.7846 16.1444 29.6453 15.8102 29.4886 15.4832L32.4297 12.5423C32.887 12.085 32.8873 11.3426 32.4297 10.8849L29.115 7.57031C28.6574 7.11266 27.9154 7.11273 27.4577 7.57031L24.5166 10.5114C24.1895 10.3547 23.8555 10.2154 23.5156 10.0939V5.9375C23.5156 5.29031 22.9909 4.76562 22.3438 4.76562H17.6562C17.0091 4.76562 16.4844 5.29031 16.4844 5.9375V10.0939C16.1444 10.2154 15.8104 10.3547 15.4834 10.5114L12.5423 7.57031C12.0847 7.11266 11.3427 7.11273 10.885 7.57031L7.57031 10.885C7.11297 11.3423 7.11266 12.0847 7.57031 12.5423L10.5114 15.4833C10.3547 15.8103 10.2154 16.1445 10.0939 16.4845H5.9375C5.29031 16.4845 4.76562 17.0091 4.76562 17.6563V22.3438C4.76562 22.991 5.29031 23.5157 5.9375 23.5157H10.0939C10.2154 23.8556 10.3547 24.1898 10.5114 24.5167L7.57031 27.4577C7.11297 27.915 7.11266 28.6575 7.57031 29.1151L10.885 32.4295C11.3426 32.8871 12.0846 32.8871 12.5423 32.4295L15.4834 29.4886C15.8104 29.6452 16.1445 29.7846 16.4844 29.9061V34.0625C16.4844 34.7097 17.0091 35.2344 17.6562 35.2344H22.3438C22.9909 35.2344 23.5156 34.7097 23.5156 34.0625V29.9061C23.8555 29.7846 24.1897 29.6453 24.5166 29.4886L27.4577 32.4295C27.9154 32.8871 28.6573 32.8871 29.115 32.4295L32.4297 29.1151C32.887 28.6578 32.8873 27.9153 32.4297 27.4577ZM28.2863 29.9436L25.5605 27.218C25.1825 26.8399 24.5964 26.7657 24.136 27.0376C23.4785 27.4259 22.7763 27.7187 22.0487 27.908C21.5323 28.0423 21.1718 28.5085 21.1718 29.0421V32.8906H18.828V29.0421C18.828 28.5085 18.4676 28.0423 17.9511 27.908C17.2236 27.7187 16.5213 27.4259 15.8638 27.0376C15.4035 26.7657 14.8173 26.8398 14.4393 27.218L11.7135 29.9436L10.0562 28.2863L12.7819 25.5606C13.16 25.1825 13.2342 24.5964 12.9623 24.136C12.574 23.4786 12.2812 22.7763 12.0919 22.0487C11.9576 21.5323 11.4913 21.1718 10.9577 21.1718H7.10938V18.828H10.9579C11.4915 18.828 11.9577 18.4676 12.092 17.9512C12.2814 17.2234 12.5742 16.5211 12.9625 15.8638C13.2344 15.4034 13.1602 14.8173 12.782 14.4391L10.0563 11.7135L11.7137 10.0562L14.4395 12.782C14.8176 13.1601 15.4037 13.2343 15.864 12.9623C16.5215 12.5741 17.2237 12.2812 17.9513 12.092C18.4677 11.9577 18.8282 11.4914 18.8282 10.9578V7.10938H21.172V10.9579C21.172 11.4915 21.5324 11.9577 22.0488 12.092C22.7764 12.2813 23.4787 12.5741 24.1362 12.9624C24.5965 13.2343 25.1827 13.1602 25.5607 12.782L28.2865 10.0562L29.9438 11.7136L27.2181 14.4392C26.84 14.8173 26.7658 15.4034 27.0377 15.8638C27.4259 16.5212 27.7188 17.2235 27.9081 17.9513C28.0424 18.4677 28.5087 18.8281 29.0423 18.8281H32.8906V21.1719H29.0421C28.5085 21.1719 28.0423 21.5323 27.908 22.0487C27.7187 22.7763 27.4259 23.4786 27.0375 24.1361C26.7656 24.5965 26.8398 25.1826 27.218 25.5607L29.9437 28.2864L28.2863 29.9436ZM20 37.6562C15.3551 37.6562 10.9409 35.8001 7.57031 32.4296C4.19992 29.0591 2.34375 24.6449 2.34375 20C2.34375 14.4577 4.95789 9.31195 9.51586 5.88227C9.9757 5.53633 10.1163 4.90773 9.84766 4.39891C9.57906 3.89008 8.98125 3.65141 8.43578 3.83578C8.19469 3.91734 3.10805 5.61289 3.05664 5.63008C2.44266 5.83477 2.11086 6.49844 2.31547 7.11242C2.52016 7.72641 3.18383 8.05813 3.79781 7.85359L4.32539 7.67773C1.43922 11.3097 0 15.7062 0 20C0 25.2013 2.09305 30.2669 5.91313 34.0869C9.72 37.8939 14.7813 40 20 40C20.6472 40 21.1719 39.4753 21.1719 38.8281C21.1719 38.1809 20.6472 37.6562 20 37.6562ZM20 14.1406C16.7691 14.1406 14.1406 16.7691 14.1406 20C14.1406 23.2309 16.7691 25.8594 20 25.8594C23.2309 25.8594 25.8594 23.2309 25.8594 20C25.8594 16.7691 23.2309 14.1406 20 14.1406ZM20 23.5156C18.0615 23.5156 16.4844 21.9385 16.4844 20C16.4844 18.0615 18.0615 16.4844 20 16.4844C21.9385 16.4844 23.5156 18.0615 23.5156 20C23.5156 21.9385 21.9385 23.5156 20 23.5156Z" fill="#FF8903"/>
</svg>
