<svg width="40" height="40" viewBox="0 0 40 40" fill="none" xmlns="http://www.w3.org/2000/svg">
<path fill-rule="evenodd" clip-rule="evenodd" d="M4.30999 0H35.6902C38.0666 0 39.9999 1.93328 39.9999 4.30968V25.6484C39.9999 28.0248 38.0666 29.9584 35.6902 29.9584H24.9374V32.6354H27.5314C29.5617 32.6354 31.2136 34.2873 31.2136 36.3177C31.2136 38.348 29.5617 39.9999 27.5314 39.9999H12.4688C10.4385 39.9999 8.7866 38.348 8.7866 36.3177C8.7866 34.2873 10.4385 32.6354 12.4688 32.6354H15.0625V29.9584H4.30999C1.93328 29.9584 0 28.0248 0 25.6484V4.30968C0 1.93328 1.93328 0 4.30999 0ZM27.5314 37.6562C28.2693 37.6562 28.8699 37.0556 28.8699 36.3177C28.8699 35.5795 28.2693 34.9789 27.5314 34.9789H12.4688C11.7306 34.9789 11.1303 35.5795 11.1303 36.3177C11.1303 37.0556 11.7306 37.6562 12.4688 37.6562H27.5314ZM17.4063 32.6351H22.5936V29.9581H17.4063V32.6351ZM35.6902 27.6147C36.7742 27.6147 37.6562 26.7324 37.6562 25.6484V4.30968C37.6562 3.2257 36.7742 2.34375 35.6902 2.34375H4.30999C3.2257 2.34375 2.34375 3.2257 2.34375 4.30968V25.6484C2.34375 26.7324 3.2257 27.6147 4.30999 27.6147H16.2314C16.232 27.6147 16.2326 27.6146 16.2331 27.6145C16.2336 27.6145 16.234 27.6144 16.2344 27.6144H23.7655C23.7664 27.6144 23.7673 27.6147 23.7686 27.6147H35.6902ZM13.5355 7.78229H27.6768C28.8077 7.78229 29.8221 8.25073 30.4603 9.06738C31.0981 9.88434 31.3065 10.9821 31.0325 12.0795L30.1102 15.769C29.8347 16.8701 29.1224 17.8455 28.1953 18.5223C28.7083 19.155 29.0165 19.9603 29.0165 20.8368C29.0165 22.8671 27.3643 24.519 25.3339 24.519C23.3036 24.519 21.6517 22.8671 21.6517 20.8368C21.6517 20.3644 21.742 19.9133 21.9047 19.498H18.7217C18.8843 19.9133 18.9747 20.3644 18.9747 20.8368C18.9747 22.8671 17.3228 24.519 15.2921 24.519C13.2618 24.519 11.6099 22.8671 11.6099 20.8368C11.6099 19.9106 11.9541 19.064 12.5205 18.4164C11.7045 17.6663 11.1918 16.5909 11.1918 15.3976V7.7829H10.0205C9.37323 7.7829 8.84863 7.2583 8.84863 6.61102C8.84863 5.96375 9.37323 5.43915 10.0205 5.43915H12.3636C13.0106 5.43915 13.5355 5.96375 13.5355 6.61102V7.78229ZM15.2921 22.1753C16.0303 22.1753 16.6309 21.5747 16.6309 20.8368C16.6309 20.0986 16.0303 19.498 15.2921 19.498C14.5542 19.498 13.9536 20.0986 13.9536 20.8368C13.9536 21.5747 14.5542 22.1753 15.2921 22.1753ZM25.3339 22.1753C26.0718 22.1753 26.6724 21.5747 26.6724 20.8368C26.6724 20.0986 26.0718 19.498 25.3339 19.498C24.5957 19.498 23.9951 20.0986 23.9951 20.8368C23.9951 21.5747 24.5957 22.1753 25.3339 22.1753ZM27.8361 15.2008L28.7583 11.5112C28.8578 11.1133 28.8062 10.7574 28.6127 10.5099C28.4196 10.2625 28.0869 10.126 27.6768 10.126H13.5355V15.3976C13.5355 16.3663 14.3235 17.1545 15.2921 17.1545H25.3339C26.4066 17.1545 27.5757 16.2415 27.8361 15.2008Z" fill="#FF8903"/>
</svg>
