<svg width="42" height="40" viewBox="0 0 42 40" fill="none" xmlns="http://www.w3.org/2000/svg">
<path fill-rule="evenodd" clip-rule="evenodd" d="M20.8893 5C20.1175 5 19.423 4.67611 18.9456 4.16254L10.5962 7.50489C10.6304 8.18527 10.3775 8.87661 9.83729 9.39502C9.33019 9.88002 8.66158 10.1234 7.99471 10.1234C7.95664 10.1234 7.91856 10.1226 7.88052 10.121L4.40399 18.1493C4.92922 18.607 5.25954 19.2672 5.25954 20C5.25954 20.7359 4.92635 21.3987 4.39716 21.8566L7.8752 29.8798C8.58055 29.8498 9.29685 30.0923 9.83553 30.6067C10.3772 31.1265 10.63 31.8202 10.5941 32.5023L18.946 35.837C19.4235 35.3237 20.1178 35 20.8893 35C21.6543 35 22.3434 35.3182 22.8204 35.8239L31.1814 32.4769C31.1531 31.8029 31.4063 31.12 31.9412 30.6067C32.4861 30.0837 33.215 29.8422 33.9307 29.8814L37.3992 21.8718C36.8597 21.4134 36.5191 20.7441 36.5191 20C36.5191 19.2663 36.8503 18.6053 37.3767 18.1475L33.8971 10.121C33.8594 10.1226 33.8216 10.1234 33.7838 10.1234C33.1169 10.1234 32.4501 9.88002 31.9412 9.39335C31.4045 8.87826 31.1514 8.19245 31.1817 7.51631L22.8192 4.17737C22.3422 4.68234 21.6536 5 20.8893 5ZM18.2873 37.3804C18.2853 37.42 18.2844 37.4599 18.2844 37.5C18.2844 38.8783 19.4531 40 20.8893 40C22.3255 40 23.4943 38.8783 23.4943 37.5C23.4943 37.4542 23.493 37.4087 23.4904 37.3635L31.8268 34.0263C31.8634 34.0662 31.9016 34.1052 31.9412 34.1433C32.4483 34.63 33.1169 34.8733 33.7838 34.8733C34.4507 34.8733 35.1176 34.63 35.6247 34.1433C36.6406 33.1683 36.6406 31.5817 35.6247 30.6067C35.595 30.5784 35.5648 30.5509 35.5342 30.5242L39.0099 22.4976C39.0478 22.4992 39.0858 22.5 39.1241 22.5C40.5603 22.5 41.729 21.3783 41.729 20C41.729 18.6217 40.5603 17.5 39.1241 17.5C39.075 17.5 39.0263 17.5013 38.978 17.5039L35.5078 9.49886C35.5476 9.46506 35.5866 9.42989 35.6247 9.39335C36.6406 8.41835 36.6406 6.83168 35.6247 5.85668C34.6105 4.88168 32.9554 4.88168 31.9412 5.85668C31.9031 5.89332 31.8663 5.93083 31.831 5.96914L23.4903 2.63894C23.4929 2.59294 23.4943 2.54662 23.4943 2.5C23.4943 1.12167 22.3255 0 20.8893 0C19.4531 0 18.2844 1.12167 18.2844 2.5C18.2844 2.53965 18.2853 2.57908 18.2872 2.61829L9.93803 5.96057C9.90564 5.92581 9.87206 5.89173 9.83729 5.85836C8.82309 4.88336 7.16807 4.88336 6.15387 5.85836C5.13793 6.83336 5.13793 8.41836 6.15213 9.39336C6.19005 9.42962 6.22884 9.46454 6.26845 9.4981L2.80166 17.5039C2.75297 17.5013 2.70394 17.5 2.65458 17.5C1.21838 17.5 0.0496216 18.6217 0.0496216 20C0.0496216 21.3783 1.21838 22.5 2.65458 22.5C2.7014 22.5 2.74794 22.4988 2.79416 22.4965L6.26549 30.5041C6.2269 30.537 6.18909 30.5712 6.15212 30.6067C5.13619 31.5817 5.13619 33.1683 6.15212 34.1433C6.65922 34.63 7.32783 34.8733 7.9947 34.8733C8.66157 34.8733 9.33017 34.63 9.83553 34.1433C9.86911 34.1111 9.90157 34.0782 9.93292 34.0447L18.2873 37.3804ZM20.8893 1.66667C20.4117 1.66667 20.021 2.04 20.021 2.5C20.021 2.96 20.4117 3.33333 20.8893 3.33333C21.3669 3.33333 21.7576 2.96 21.7576 2.5C21.7576 2.04 21.3669 1.66667 20.8893 1.66667ZM8.7328 20C8.7328 26.4333 14.1876 31.6667 20.8893 31.6667C27.591 31.6667 33.0458 26.4333 33.0458 20C33.0458 13.5667 27.591 8.33334 20.8893 8.33334C14.1876 8.33334 8.7328 13.5667 8.7328 20ZM10.4694 20C10.4694 14.485 15.1427 10 20.8893 10C26.6358 10 31.3091 14.485 31.3091 20C31.3091 25.515 26.6358 30 20.8893 30C15.1427 30 10.4694 25.515 10.4694 20ZM20.021 24.1667C20.021 24.6267 20.41 25 20.8893 25C21.3686 25 21.7577 24.6267 21.7577 24.1667V20.8333V18.3333C21.7577 16.495 20.1999 15 18.2844 15C16.3689 15 14.8111 16.495 14.8111 18.3333V20.8333V24.1667C14.8111 24.6267 15.2001 25 15.6794 25C16.1587 25 16.5477 24.6267 16.5477 24.1667V21.6667H20.021V24.1667ZM20.021 18.3333V20H16.5477V18.3333C16.5477 17.415 17.3257 16.6667 18.2844 16.6667C19.243 16.6667 20.021 17.415 20.021 18.3333ZM25.2309 24.1667C25.2309 24.6267 25.6199 25 26.0992 25C26.5785 25 26.9675 24.6267 26.9675 24.1667V15.8333C26.9675 15.3733 26.5785 15 26.0992 15C25.6199 15 25.2309 15.3733 25.2309 15.8333V24.1667ZM20.021 37.5C20.021 37.04 20.4117 36.6667 20.8893 36.6667C21.3669 36.6667 21.7576 37.04 21.7576 37.5C21.7576 37.96 21.3669 38.3333 20.8893 38.3333C20.4117 38.3333 20.021 37.96 20.021 37.5ZM39.1241 19.1667C38.6465 19.1667 38.2557 19.54 38.2557 20C38.2557 20.46 38.6465 20.8333 39.1241 20.8333C39.6016 20.8333 39.9924 20.46 39.9924 20C39.9924 19.54 39.6016 19.1667 39.1241 19.1667ZM33.169 7.03668C33.3392 6.87335 33.5615 6.79335 33.7838 6.79335C34.0061 6.79335 34.2284 6.87335 34.3969 7.03835C34.7355 7.36335 34.7355 7.89168 34.3969 8.21668C34.0582 8.54168 33.5077 8.54002 33.169 8.21668C32.8304 7.89002 32.8304 7.36168 33.169 7.03668ZM33.7838 31.5417C33.5615 31.5417 33.3392 31.6233 33.169 31.785C32.8304 32.11 32.8304 32.6383 33.169 32.9633C33.5077 33.2883 34.0582 33.2883 34.3969 32.9633C34.7355 32.6383 34.7355 32.11 34.3969 31.7833C34.2284 31.6233 34.0061 31.5417 33.7838 31.5417ZM1.78626 20C1.78626 19.54 2.17701 19.1667 2.65458 19.1667C3.13216 19.1667 3.5229 19.54 3.5229 20C3.5229 20.46 3.13216 20.8333 2.65458 20.8333C2.17701 20.8333 1.78626 20.46 1.78626 20ZM7.9947 31.5417C7.77241 31.5417 7.55012 31.6233 7.37993 31.785C7.04128 32.11 7.04128 32.6383 7.37993 32.9633C7.71857 33.2883 8.26909 33.2883 8.60773 32.9633C8.94637 32.6383 8.94637 32.11 8.60773 31.7833C8.43928 31.6233 8.21699 31.5417 7.9947 31.5417ZM8.60948 8.21502C8.27083 8.54002 7.72032 8.53836 7.38167 8.21502C7.04129 7.89002 7.04129 7.36169 7.38167 7.03669C7.72032 6.71169 8.27083 6.71169 8.60948 7.03669C8.94812 7.36169 8.94812 7.89002 8.60948 8.21502Z" fill="#FF8903"/>
</svg>
