<svg width="20" height="20" viewBox="0 0 20 20" fill="none" xmlns="http://www.w3.org/2000/svg">
    <circle cx="10" cy="10" r="9.5" stroke="black"/>
    <path fill-rule="evenodd" clip-rule="evenodd" d="M8.45748 5.43114C8.64384 4.80526 9.1904 4.16669 9.99998 4.16669C10.8098 4.16669 11.3558 4.80528 11.5436 5.42998C11.5445 5.43115 11.5458 5.43262 11.5474 5.43431C11.5512 5.43832 11.5556 5.44202 11.5597 5.44488C11.5628 5.44706 11.5647 5.448 11.565 5.44811C12.0362 5.64214 12.5909 5.95208 13.0248 6.51954C13.4621 7.09157 13.7466 7.88565 13.7466 8.99351C13.7466 10.0981 13.8631 10.7038 14.0347 11.1196C14.1852 11.4842 14.3831 11.7239 14.6646 12.0649C14.7058 12.1147 14.7487 12.1667 14.7935 12.2215L14.7936 12.2217C15.3125 12.8573 14.8225 13.75 14.0232 13.75H5.9794C5.18153 13.75 4.68327 12.8618 5.20648 12.2215C5.25132 12.1667 5.29426 12.1147 5.33541 12.0648C5.61692 11.7238 5.81482 11.4842 5.96542 11.1195C6.13719 10.7037 6.25401 10.098 6.25466 8.99351M8.45748 5.43114C8.45676 5.43199 8.45586 5.433 8.45476 5.43414C8.45121 5.43782 8.44702 5.44137 8.44284 5.44425C8.43895 5.44692 8.43662 5.44797 8.43662 5.44797L8.43637 5.44808C7.9649 5.64223 7.41001 5.95158 6.97613 6.51891C6.53883 7.09071 6.2547 7.88468 6.25466 8.99327M9.99998 5.00002C9.67918 5.00002 9.37281 5.26753 9.25425 5.67543L9.25395 5.67647C9.1775 5.93695 8.96583 6.13137 8.75369 6.21863C8.75365 6.21864 8.75362 6.21866 8.75359 6.21867C8.35556 6.38259 7.94864 6.61906 7.63808 7.02515C7.33095 7.42674 7.088 8.03374 7.088 8.99351V8.99375C7.08733 10.1457 6.96744 10.8765 6.73564 11.4377C6.53398 11.9259 6.25248 12.2652 5.97318 12.6018C5.93259 12.6507 5.89205 12.6996 5.8518 12.7488L5.85178 12.7488C5.83519 12.7691 5.83055 12.7858 5.82942 12.7983C5.82814 12.8125 5.83081 12.8295 5.83973 12.8469C5.85521 12.8773 5.89377 12.9167 5.9794 12.9167H14.0232C14.1057 12.9167 14.1436 12.8786 14.1594 12.8474C14.1763 12.814 14.1742 12.7808 14.1481 12.7488C14.1079 12.6996 14.0674 12.6507 14.0268 12.6019C13.7475 12.2652 13.466 11.9259 13.2644 11.4376C13.0328 10.8763 12.9133 10.1454 12.9133 8.99351C12.9133 8.03497 12.6701 7.42775 12.3627 7.02568C12.0519 6.6191 11.6448 6.38217 11.2476 6.21865C11.0331 6.13041 10.8237 5.93327 10.7477 5.67713L10.7473 5.67607C10.6272 5.26733 10.3208 5.00002 9.99998 5.00002Z" fill="#181818"/>
    <path fill-rule="evenodd" clip-rule="evenodd" d="M8.33329 12.9167C8.56341 12.9167 8.74996 13.1032 8.74996 13.3334V13.75C8.74996 14.0815 8.88166 14.3995 9.11608 14.6339C9.3505 14.8683 9.66844 15 9.99996 15C10.3315 15 10.6494 14.8683 10.8838 14.6339C11.1183 14.3995 11.25 14.0815 11.25 13.75V13.3334C11.25 13.1032 11.4365 12.9167 11.6666 12.9167C11.8967 12.9167 12.0833 13.1032 12.0833 13.3334V13.75C12.0833 14.3026 11.8638 14.8325 11.4731 15.2232C11.0824 15.6139 10.5525 15.8334 9.99996 15.8334C9.44742 15.8334 8.91752 15.6139 8.52682 15.2232C8.13612 14.8325 7.91663 14.3026 7.91663 13.75V13.3334C7.91663 13.1032 8.10317 12.9167 8.33329 12.9167Z" fill="#181818"/>
</svg>
