<svg width="50" height="50" viewBox="0 0 50 50" fill="none" xmlns="http://www.w3.org/2000/svg">
    <path d="M31.2251 13.6336C30.408 12.8489 30.408 11.5773 31.2251 10.7925C32.0421 10.0078 33.3672 10.0078 34.1841 10.7925L48.9798 24.9999L34.1844 39.2074C33.3673 39.9921 32.0426 39.9921 31.2254 39.2074C30.4083 38.4226 30.4083 37.151 31.2254 36.3652L43.0617 24.9999L31.2251 13.6336Z" fill="#9BFC1D"/>
    <path d="M15.9192 13.6336C15.1021 12.8489 15.1021 11.5773 15.9192 10.7925C16.7362 10.0078 18.061 10.0078 18.8782 10.7925L33.6736 24.9999L18.8782 39.2074C18.0611 39.9921 16.7363 39.9921 15.9192 39.2074C15.1021 38.4226 15.1021 37.151 15.9192 36.3652L27.7555 24.9999L15.9192 13.6336Z" fill="#26BBEC"/>
    <path d="M1.63328 13.6336C0.816251 12.8489 0.816251 11.5773 1.63328 10.7925C2.45031 10.0078 3.7751 10.0078 4.59228 10.7925L19.3877 24.9999L4.59228 39.2074C3.77525 39.9921 2.45016 39.9921 1.63328 39.2074C0.816251 38.4226 0.816251 37.151 1.63328 36.3652L13.4696 24.9999L1.63328 13.6336Z" fill="#288EEA"/>
</svg>
