<svg
    width="16"
    height="16"
    viewBox="0 0 16 16"
    fill="none"
    xmlns="http://www.w3.org/2000/svg"
    >
    <path
        d="M14.4733 13.5267L12 11.0734C12.9601 9.8763 13.425 8.35689 13.2992 6.82756C13.1734 5.29823 12.4664 3.87522 11.3237 2.85112C10.1809 1.82703 8.6892 1.2797 7.15528 1.32167C5.62136 1.36365 4.16181 1.99174 3.07676 3.07679C1.99171 4.16184 1.36362 5.62139 1.32164 7.15531C1.27967 8.68923 1.827 10.1809 2.85109 11.3237C3.87519 12.4665 5.2982 13.1734 6.82753 13.2992C8.35686 13.425 9.87627 12.9601 11.0733 12L13.5267 14.4534C13.5886 14.5158 13.6624 14.5654 13.7436 14.5993C13.8249 14.6331 13.912 14.6506 14 14.6506C14.088 14.6506 14.1751 14.6331 14.2564 14.5993C14.3376 14.5654 14.4114 14.5158 14.4733 14.4534C14.5935 14.3291 14.6607 14.1629 14.6607 13.99C14.6607 13.8171 14.5935 13.651 14.4733 13.5267ZM7.33333 12C6.41035 12 5.5081 11.7263 4.74067 11.2136C3.97324 10.7008 3.3751 9.97194 3.02189 9.11922C2.66868 8.2665 2.57627 7.32818 2.75633 6.42294C2.9364 5.5177 3.38085 4.68617 4.0335 4.03353C4.68614 3.38088 5.51766 2.93643 6.42291 2.75636C7.32815 2.5763 8.26646 2.66871 9.11919 3.02192C9.97191 3.37513 10.7007 3.97327 11.2135 4.7407C11.7263 5.50813 12 6.41038 12 7.33336C12 8.57104 11.5083 9.75802 10.6332 10.6332C9.75799 11.5084 8.57101 12 7.33333 12Z"
        fill="#CBCBCB"
    />
</svg>