<svg width="60" height="52" viewBox="0 0 60 52" fill="none" xmlns="http://www.w3.org/2000/svg">
    <path d="M13.5938 11.3516H6.5625C5.59172 11.3516 4.80469 10.5645 4.80469 9.59375V4.90625C4.80469 2.64465 6.64465 0.804688 8.90625 0.804688H11.25C13.5116 0.804688 15.3516 2.64465 15.3516 4.90625V9.59375C15.3516 10.5645 14.5645 11.3516 13.5938 11.3516Z" fill="url(#paint0_linear)"/>
    <path d="M53.5547 51.1953H6.44531C2.89137 51.1953 0 48.3039 0 44.75V14.2812C0 10.7273 2.89137 7.83594 6.44531 7.83594H18.1861L19.3279 4.41055C20.0469 2.25371 22.0575 0.804688 24.3308 0.804688H35.6692C37.9425 0.804688 39.9531 2.25371 40.672 4.41055L41.8138 7.83594H53.5547C57.1086 7.83594 60 10.7273 60 14.2812V44.75C60 48.3039 57.1086 51.1953 53.5547 51.1953Z" fill="url(#paint1_linear)"/>
    <path d="M30 43C22.2804 43 16 36.7196 16 29C16 21.2804 22.2804 15 30 15C37.7196 15 44 21.2804 44 29C44 36.7196 37.7196 43 30 43Z" fill="url(#paint2_linear)"/>
    <path d="M30.0001 39.6207C24.1438 39.6207 19.3794 34.8562 19.3794 29C19.3794 23.1438 24.1438 18.3793 30.0001 18.3793C35.8563 18.3793 40.6208 23.1438 40.6208 29C40.6208 34.8562 35.8563 39.6207 30.0001 39.6207Z" fill="white"/>
    <path d="M52.2656 18.3828C53.2364 18.3828 54.0234 17.5958 54.0234 16.625C54.0234 15.6542 53.2364 14.8672 52.2656 14.8672C51.2948 14.8672 50.5078 15.6542 50.5078 16.625C50.5078 17.5958 51.2948 18.3828 52.2656 18.3828Z" fill="url(#paint3_linear)"/>
    <path d="M10.0781 18.3828H6.5625C5.59172 18.3828 4.80469 17.5958 4.80469 16.625C4.80469 15.6542 5.59172 14.8672 6.5625 14.8672H10.0781C11.0489 14.8672 11.8359 15.6542 11.8359 16.625C11.8359 17.5958 11.0489 18.3828 10.0781 18.3828Z" fill="url(#paint4_linear)"/>
    <defs>
    <linearGradient id="paint0_linear" x1="10.0781" y1="0.804687" x2="10.0781" y2="11.3516" gradientUnits="userSpaceOnUse">
    <stop stop-color="#FFEEAD"/>
    <stop offset="1" stop-color="#FEE47F"/>
    </linearGradient>
    <linearGradient id="paint1_linear" x1="30" y1="51.1953" x2="30" y2="0.804688" gradientUnits="userSpaceOnUse">
    <stop stop-color="#66B8DC"/>
    <stop offset="1" stop-color="#C5F1FF"/>
    </linearGradient>
    <linearGradient id="paint2_linear" x1="30" y1="15" x2="30" y2="43" gradientUnits="userSpaceOnUse">
    <stop stop-color="#FFEEAD"/>
    <stop offset="1" stop-color="#FEE47F"/>
    </linearGradient>
    <linearGradient id="paint3_linear" x1="52.2656" y1="18.3828" x2="52.2656" y2="14.8672" gradientUnits="userSpaceOnUse">
    <stop stop-color="#C3E6FF"/>
    <stop offset="0.9973" stop-color="#F0FCFF"/>
    </linearGradient>
    <linearGradient id="paint4_linear" x1="8.3203" y1="18.3828" x2="8.3203" y2="14.8672" gradientUnits="userSpaceOnUse">
    <stop stop-color="#C3E6FF"/>
    <stop offset="0.9973" stop-color="#F0FCFF"/>
    </linearGradient>
    </defs>
</svg>
