<svg width="40" height="40" viewBox="0 0 40 40" fill="none" xmlns="http://www.w3.org/2000/svg">
    <path d="M21.1834 13.8166C21.0249 13.6649 20.838 13.5459 20.6334 13.4666C20.2276 13.2999 19.7725 13.2999 19.3667 13.4666C19.1622 13.5459 18.9753 13.6649 18.8167 13.8166L13.8167 18.8166C13.5029 19.1305 13.3266 19.5561 13.3266 20C13.3266 20.4438 13.5029 20.8694 13.8167 21.1833C14.1306 21.4971 14.5562 21.6734 15.0001 21.6734C15.4439 21.6734 15.8696 21.4971 16.1834 21.1833L18.3334 19.0166L18.3334 25C18.3334 25.442 18.509 25.8659 18.8216 26.1785C19.1341 26.491 19.5581 26.6666 20.0001 26.6666C20.4421 26.6666 20.866 26.491 21.1786 26.1785C21.4912 25.8659 21.6667 25.442 21.6667 25V19.0166L23.8167 21.1833C23.9717 21.3395 24.156 21.4635 24.3591 21.5481C24.5622 21.6327 24.7801 21.6763 25.0001 21.6763C25.2201 21.6763 25.4379 21.6327 25.641 21.5481C25.8441 21.4635 26.0285 21.3395 26.1834 21.1833C26.3396 21.0283 26.4636 20.844 26.5482 20.6409C26.6328 20.4378 26.6764 20.22 26.6764 20C26.6764 19.7799 26.6328 19.5621 26.5482 19.359C26.4636 19.1559 26.3396 18.9716 26.1834 18.8166L21.1834 13.8166ZM20.0001 3.33329C16.7037 3.33329 13.4814 4.31077 10.7406 6.14213C7.99976 7.97349 5.86355 10.5765 4.60209 13.6219C3.34063 16.6673 3.01057 20.0184 3.65366 23.2515C4.29675 26.4845 5.88409 29.4542 8.21497 31.7851C10.5458 34.1159 13.5156 35.7033 16.7486 36.3464C19.9816 36.9895 23.3327 36.6594 26.3781 35.3979C29.4236 34.1365 32.0266 32.0003 33.8579 29.2595C35.6893 26.5186 36.6667 23.2963 36.6667 20C36.6667 15.5797 34.9108 11.3404 31.7852 8.21484C30.2376 6.6672 28.4002 5.43954 26.3781 4.60196C24.356 3.76439 22.1888 3.33329 20.0001 3.33329ZM20.0001 33.3333C17.363 33.3333 14.7851 32.5513 12.5925 31.0862C10.3998 29.6211 8.69085 27.5387 7.68168 25.1024C6.67252 22.6661 6.40847 19.9852 6.92294 17.3987C7.43741 14.8123 8.70729 12.4366 10.572 10.5719C12.4367 8.70716 14.8125 7.43729 17.3989 6.92282C19.9853 6.40835 22.6662 6.67239 25.1025 7.68156C27.5389 8.69073 29.6213 10.3997 31.0863 12.5924C32.5514 14.785 33.3334 17.3629 33.3334 20C33.3334 23.5362 31.9287 26.9276 29.4282 29.428C26.9277 31.9285 23.5363 33.3333 20.0001 33.3333Z" fill="#008BD9"/>
</svg>
