<svg width="100" height="100" viewBox="0 0 100 100" fill="none" xmlns="http://www.w3.org/2000/svg">
    <path d="M82.2266 64.6484H58.7891C57.1697 64.6484 55.8594 63.3381 55.8594 61.7188V50C55.8594 48.3807 57.1697 47.0703 58.7891 47.0703H61.7188L50 31.4463L38.2812 47.0703H41.2109C42.8303 47.0703 44.1406 48.3807 44.1406 50V61.7188C44.1406 63.3381 42.8303 64.6484 41.2109 64.6484H17.7734C8.08027 64.6484 0 56.7635 0 47.0703C0 38.327 6.60977 31.0543 14.9811 29.7125C16.343 16.443 27.5867 6.05469 41.2109 6.05469C47.734 6.05469 53.8967 8.4293 58.7605 12.7781C60.683 12.2029 62.6572 11.9141 64.6484 11.9141C75.034 11.9141 83.6457 19.676 84.9789 29.7068C93.3674 31.0314 100 38.3127 100 47.0703C100 56.7635 91.9197 64.6484 82.2266 64.6484Z" fill="url(#paint0_linear)"/>
    <path d="M69.9242 48.2434L52.346 24.8059C51.2359 23.3295 48.764 23.3295 47.6541 24.8059L30.0759 48.2434C29.4123 49.1303 29.3035 50.3176 29.8013 51.3104C30.2992 52.3032 31.3117 52.9297 32.4218 52.9297H38.2812V79.2969C38.2812 80.9162 39.5916 82.2266 41.2109 82.2266H58.789C60.4084 82.2266 61.7187 80.9162 61.7187 79.2969V52.9297H67.5781C68.6882 52.9297 69.7009 52.3032 70.1988 51.3104C70.6966 50.3176 70.5878 49.1303 69.9242 48.2434ZM58.789 88.086H41.2109C39.5916 88.086 38.2812 89.3963 38.2812 91.0156C38.2812 92.635 39.5916 93.9453 41.2109 93.9453H58.789C60.4084 93.9453 61.7187 92.635 61.7187 91.0156C61.7187 89.3963 60.4084 88.086 58.789 88.086Z" fill="url(#paint1_linear)"/>
    <defs>
    <linearGradient id="paint0_linear" x1="50" y1="64.6484" x2="50" y2="6.05469" gradientUnits="userSpaceOnUse">
    <stop stop-color="#54C0EE"/>
    <stop offset="1" stop-color="#C5F1FF"/>
    </linearGradient>
    <linearGradient id="paint1_linear" x1="50" y1="93.9453" x2="50" y2="23.6987" gradientUnits="userSpaceOnUse">
    <stop stop-color="#C3E6FF"/>
    <stop offset="0.9973" stop-color="#F0FCFF"/>
    </linearGradient>
    </defs>
</svg>
